<svg width="10" height="5" viewBox="0 0 10 5" fill="none" xmlns="http://www.w3.org/2000/svg">
<path d="M4.58829 4.856C4.63416 4.90041 4.69555 4.93672 4.76715 4.96181C4.83875 4.98689 4.91843 5 4.99932 5C5.08021 5 5.15989 4.98689 5.2315 4.96181C5.3031 4.93672 5.36448 4.90041 5.41035 4.856L9.91071 0.522964C9.9628 0.472987 9.99335 0.414449 9.99903 0.353711C10.0047 0.292973 9.98532 0.232358 9.94295 0.178452C9.90058 0.124546 9.83686 0.0794107 9.75871 0.0479494C9.68056 0.0164882 9.59097 -9.54414e-05 9.49967 4.13189e-07H0.49897C0.407885 0.000251199 0.318625 0.0170481 0.24079 0.0485847C0.162955 0.0801213 0.0994899 0.125204 0.0572196 0.178986C0.0149493 0.232767 -0.00452694 0.293212 0.000885468 0.35382C0.00629787 0.414428 0.0363941 0.472905 0.0879376 0.522964L4.58829 4.856Z" fill="#4B4B4B"/>
</svg>
