<svg width="18" height="18" viewBox="0 0 18 18" fill="none" xmlns="http://www.w3.org/2000/svg">
<path d="M13.0498 10.7998C14.5438 10.7998 15.7498 12.0058 15.7498 13.4998C15.7498 14.9938 14.5438 16.1998 13.0498 16.1998C11.5558 16.1998 10.3498 14.9938 10.3498 13.4998C10.3498 13.2838 10.3768 13.0858 10.4308 12.8788L6.4888 10.8088C5.9938 11.3578 5.2918 11.6998 4.4998 11.6998C3.0058 11.6998 1.7998 10.4938 1.7998 8.9998C1.7998 7.5058 3.0058 6.2998 4.4998 6.2998C5.2918 6.2998 5.9938 6.6508 6.4888 7.1908L10.4308 5.1208C10.3768 4.9138 10.3498 4.7158 10.3498 4.4998C10.3498 3.0058 11.5558 1.7998 13.0498 1.7998C14.5438 1.7998 15.7498 3.0058 15.7498 4.4998C15.7498 5.9938 14.5438 7.1998 13.0498 7.1998C12.2578 7.1998 11.5558 6.8488 11.0608 6.3088L7.1188 8.3788C7.22781 8.78563 7.22781 9.21398 7.1188 9.6208L11.0608 11.6908C11.5558 11.1418 12.2578 10.7998 13.0498 10.7998Z" fill="#BABCBE"/>
</svg>
