<svg width="18" height="18" viewBox="0 0 18 18" fill="none" xmlns="http://www.w3.org/2000/svg">
<path d="M8.7825 13.4925C7.62798 13.4379 6.53885 12.9407 5.74135 12.1041C4.94386 11.2675 4.49929 10.1558 4.5 9C4.5 6.5175 6.5175 4.5 9 4.5C11.415 4.5 13.38 6.3975 13.4925 8.7825L11.9175 8.31C11.7949 7.79009 11.5357 7.31234 11.1666 6.92616C10.7976 6.53997 10.3321 6.25935 9.81828 6.11331C9.30446 5.96727 8.76096 5.96111 8.24396 6.09546C7.72696 6.2298 7.25522 6.49979 6.87751 6.87751C6.49979 7.25522 6.22981 7.72696 6.09546 8.24396C5.96111 8.76096 5.96727 9.30446 6.11331 9.81828C6.25936 10.3321 6.53997 10.7976 6.92616 11.1666C7.31234 11.5357 7.79009 11.7949 8.31 11.9175L8.7825 13.4925ZM16.5 9C16.5 9.225 16.4925 9.45 16.47 9.675L14.9925 9.2325C15 9.1575 15 9.075 15 9C15 5.685 12.315 3 9 3C5.685 3 3 5.685 3 9C3 12.315 5.685 15 9 15C9.075 15 9.1575 15 9.2325 14.9925L9.675 16.47C9.45 16.4925 9.225 16.5 9 16.5C4.86 16.5 1.5 13.14 1.5 9C1.5 4.86 4.86 1.5 9 1.5C13.14 1.5 16.5 4.86 16.5 9ZM13.6725 12.195L16.5 11.25L9 9L11.25 16.5L12.195 13.6725L15.3975 16.875L16.8825 15.39L13.6725 12.195Z" fill="#BABCBE"/>
</svg>
