<svg width="28" height="28" viewBox="0 0 28 28" fill="none" xmlns="http://www.w3.org/2000/svg">
<path d="M24.978 13.3117L14.6763 3.01004C14.2447 2.57837 13.6497 2.33337 13.0313 2.33337H4.66634C3.38301 2.33337 2.33301 3.38337 2.33301 4.66671V13.0317C2.33301 13.65 2.57801 14.245 3.02134 14.6767L13.323 24.9784C14.233 25.8884 15.7147 25.8884 16.6247 24.9784L24.9897 16.6134C25.8997 15.7034 25.8997 14.2334 24.978 13.3117ZM7.58301 9.33337C6.61467 9.33337 5.83301 8.55171 5.83301 7.58337C5.83301 6.61504 6.61467 5.83337 7.58301 5.83337C8.55134 5.83337 9.33301 6.61504 9.33301 7.58337C9.33301 8.55171 8.55134 9.33337 7.58301 9.33337Z" fill="#BEBEBE"/>
</svg>
