<svg width="31" height="31" viewBox="0 0 31 31" fill="none" xmlns="http://www.w3.org/2000/svg">
<path d="M27.8813 15.8086L16.6184 4.55393C16.5373 4.47268 16.4409 4.40821 16.3349 4.36423C16.2289 4.32025 16.1152 4.29761 16.0004 4.29761C15.8856 4.29761 15.7719 4.32025 15.6659 4.36423C15.5598 4.40821 15.4635 4.47268 15.3824 4.55393L4.11953 15.8086C3.79141 16.1367 3.60547 16.5824 3.60547 17.0473C3.60547 18.0125 4.39023 18.7973 5.35547 18.7973H6.54219V26.8282C6.54219 27.3121 6.9332 27.7032 7.41719 27.7032H14.2504V21.5782H17.3129V27.7032H24.5836C25.0676 27.7032 25.4586 27.3121 25.4586 26.8282V18.7973H26.6453C27.1102 18.7973 27.5559 18.6141 27.884 18.2832C28.5648 17.5996 28.5648 16.4922 27.8813 15.8086Z" fill="#1086C9"/>
</svg>
