<svg width="31" height="31" viewBox="0 0 31 31" fill="none" xmlns="http://www.w3.org/2000/svg">
<path fill-rule="evenodd" clip-rule="evenodd" d="M9.875 22.125C9.875 21.8929 9.96719 21.6704 10.1313 21.5063C10.2954 21.3422 10.5179 21.25 10.75 21.25H28.25C28.4821 21.25 28.7046 21.3422 28.8687 21.5063C29.0328 21.6704 29.125 21.8929 29.125 22.125C29.125 22.3571 29.0328 22.5796 28.8687 22.7437C28.7046 22.9078 28.4821 23 28.25 23H10.75C10.5179 23 10.2954 22.9078 10.1313 22.7437C9.96719 22.5796 9.875 22.3571 9.875 22.125ZM6.375 15.125C6.375 14.8929 6.46719 14.6704 6.63128 14.5063C6.79538 14.3422 7.01794 14.25 7.25 14.25H24.75C24.9821 14.25 25.2046 14.3422 25.3687 14.5063C25.5328 14.6704 25.625 14.8929 25.625 15.125C25.625 15.3571 25.5328 15.5796 25.3687 15.7437C25.2046 15.9078 24.9821 16 24.75 16H7.25C7.01794 16 6.79538 15.9078 6.63128 15.7437C6.46719 15.5796 6.375 15.3571 6.375 15.125ZM2.875 8.125C2.875 7.89294 2.96719 7.67038 3.13128 7.50628C3.29538 7.34219 3.51794 7.25 3.75 7.25H21.25C21.4821 7.25 21.7046 7.34219 21.8687 7.50628C22.0328 7.67038 22.125 7.89294 22.125 8.125C22.125 8.35706 22.0328 8.57962 21.8687 8.74372C21.7046 8.90781 21.4821 9 21.25 9H3.75C3.51794 9 3.29538 8.90781 3.13128 8.74372C2.96719 8.57962 2.875 8.35706 2.875 8.125Z" fill="#BEBEBE"/>
</svg>
