<svg width="28" height="28" viewBox="0 0 28 28" fill="none" xmlns="http://www.w3.org/2000/svg">
<path d="M14 15.5C17.7266 15.5 20.75 12.4766 20.75 8.75C20.75 5.02344 17.7266 2 14 2C10.2734 2 7.25 5.02344 7.25 8.75C7.25 12.4766 10.2734 15.5 14 15.5ZM20 17H17.4172C16.3766 17.4781 15.2188 17.75 14 17.75C12.7812 17.75 11.6281 17.4781 10.5828 17H8C4.68594 17 2 19.6859 2 23V23.75C2 24.9922 3.00781 26 4.25 26H23.75C24.9922 26 26 24.9922 26 23.75V23C26 19.6859 23.3141 17 20 17Z" fill="#BEBEBE"/>
</svg>
