<svg width="29" height="30" viewBox="0 0 29 30" fill="none" xmlns="http://www.w3.org/2000/svg">
<path d="M27 12.2513V23.9718C26.9994 24.5095 26.7885 25.0251 26.4136 25.4053C26.0386 25.7855 25.5303 25.9994 25 26H5C4.46975 25.9994 3.96139 25.7855 3.58644 25.4053C3.2115 25.0251 3.0006 24.5095 3 23.9718V12.2512C3.00023 11.9686 3.05856 11.6892 3.17125 11.4308C3.28395 11.1724 3.44853 10.9407 3.6545 10.7504L13.6538 1.53047C14.021 1.18929 14.5011 1.00002 14.9992 1C15.4973 0.999977 15.9773 1.18919 16.3446 1.53035L26.3455 10.7504V10.7506C26.5515 10.9408 26.716 11.1726 26.8287 11.431C26.9414 11.6894 26.9998 11.9688 27 12.2513Z" fill="#BEBEBE"/>
<g clip-path="url(#clip0)">
<path d="M13.473 14.6249L19.2473 8.50145L21.6749 10.7906C22.0059 11.1028 22.0215 11.6329 21.707 11.9663C21.3926 12.2998 20.8625 12.3153 20.5315 12.0032L19.3165 10.8575L18.173 12.07L19.3856 13.2135C19.7191 13.5279 19.7346 14.058 19.4202 14.3915C19.1057 14.7249 18.5756 14.7405 18.2422 14.426L17.0296 13.2826L14.6855 15.7684C15.2765 16.613 15.5335 17.6468 15.4069 18.6698C15.2803 19.6929 14.7791 20.6328 14 21.3079C13.221 21.9831 12.2194 22.3456 11.1887 22.3254C10.158 22.3053 9.17132 21.9039 8.41925 21.1989C7.66677 20.4907 7.20426 19.5282 7.12151 18.4983C7.03876 17.4683 7.34167 16.4443 7.97143 15.6251C8.60119 14.8059 9.51288 14.2499 10.5295 14.0651C11.5461 13.8803 12.5952 14.0798 13.473 14.6249ZM13.0967 19.8826C13.5516 19.4002 13.7962 18.7569 13.7768 18.0941C13.7573 17.4314 13.4754 16.8035 12.993 16.3486C12.5106 15.8937 11.8673 15.6491 11.2045 15.6685C10.5418 15.688 9.91387 15.9699 9.45899 16.4523C9.0041 16.9347 8.75947 17.578 8.77892 18.2408C8.79837 18.9035 9.0803 19.5314 9.56269 19.9863C10.0451 20.4412 10.6884 20.6858 11.3512 20.6664C12.0139 20.6469 12.6418 20.365 13.0967 19.8826Z" fill="white"/>
</g>
<defs>
<clipPath id="clip0">
<rect width="20" height="20" fill="white" transform="translate(0 15.5509) rotate(-46.6808)"/>
</clipPath>
</defs>
</svg>
