<svg width="16" height="16" viewBox="0 0 16 16" fill="none" xmlns="http://www.w3.org/2000/svg">
<g clip-path="url(#clip0)">
<path d="M9.66658 15.9866H6.83373V15.6844C6.83373 14.6685 6.83373 13.6523 6.83373 12.6357C6.83373 11.7536 6.38391 11.3003 5.51077 11.2983C5.02746 11.2983 4.54466 11.2932 4.06135 11.2983C3.31516 11.3083 2.84385 11.7793 2.83885 12.5319C2.83185 13.5812 2.83885 14.631 2.83885 15.6809V15.9927C2.05966 15.9927 1.31197 16.0058 0.564771 15.9861C0.27189 15.9781 0.0324868 15.6884 0.00499797 15.3922C-0.00299878 15.3091 0.000999595 15.2245 0.000999595 15.1403V1.33516C0 0.381065 0.587262 -0.120667 1.51639 0.0234044C3.66351 0.356885 5.81114 0.686839 7.95927 1.01327C8.20617 1.05105 8.45307 1.08681 8.69897 1.13064C8.95176 1.17334 9.1832 1.29974 9.35672 1.48987C9.53024 1.68 9.63594 1.923 9.65709 2.18045C9.66608 2.2812 9.66608 2.38195 9.66608 2.4827C9.66608 6.88208 9.66608 11.2825 9.66608 15.6839L9.66658 15.9866ZM6.49337 2.73054C6.32694 2.73054 6.16 2.72248 5.99357 2.73054C5.69969 2.74867 5.50177 2.95571 5.50227 3.22874C5.50037 3.35653 5.54843 3.47993 5.63606 3.5723C5.72368 3.66467 5.84384 3.71859 5.97058 3.72242C6.32044 3.74005 6.6703 3.74005 7.02015 3.72242C7.08454 3.72131 7.14806 3.70731 7.20701 3.68122C7.26597 3.65513 7.31919 3.61748 7.36357 3.57045C7.40794 3.52343 7.44259 3.46797 7.46549 3.40732C7.4884 3.34666 7.49909 3.28202 7.49696 3.21716C7.48996 2.94715 7.28655 2.74716 6.99167 2.73155C6.82623 2.72298 6.6598 2.73003 6.49337 2.73054ZM6.51636 4.74552C6.33343 4.74552 6.14951 4.73444 5.96658 4.74855C5.84447 4.75368 5.72879 4.80511 5.6427 4.89254C5.5566 4.97997 5.50645 5.09694 5.50227 5.22005C5.49765 5.28322 5.50554 5.34669 5.52547 5.40676C5.5454 5.46683 5.57698 5.52232 5.61837 5.56998C5.65975 5.61765 5.71013 5.65655 5.76656 5.68443C5.82299 5.7123 5.88436 5.7286 5.94709 5.73236C6.31332 5.75311 6.68041 5.75311 7.04664 5.73236C7.1092 5.72927 7.17053 5.71378 7.22714 5.68678C7.28376 5.65979 7.33454 5.62181 7.37659 5.57504C7.41864 5.52826 7.45113 5.47359 7.47221 5.41415C7.4933 5.35471 7.50256 5.29166 7.49946 5.22862C7.49146 4.96818 7.29604 4.76618 7.01716 4.74704C6.84972 4.73847 6.68279 4.74754 6.51636 4.74754V4.74552ZM6.50336 6.76051C6.32843 6.76051 6.15351 6.75094 5.97958 6.76303C5.70019 6.78268 5.50777 6.98619 5.50277 7.24915C5.50002 7.31256 5.50969 7.3759 5.53124 7.43554C5.55279 7.49518 5.58579 7.54996 5.62835 7.59675C5.67092 7.64353 5.72221 7.6814 5.7793 7.70819C5.83639 7.73498 5.89816 7.75017 5.96108 7.75289C6.31837 7.77128 6.67636 7.77128 7.03365 7.75289C7.16039 7.74855 7.28029 7.69392 7.36726 7.60089C7.45422 7.50786 7.5012 7.38397 7.49796 7.2562C7.49796 6.98518 7.29554 6.77865 7.00266 6.76152C6.83673 6.75447 6.6698 6.76253 6.50336 6.76253V6.76051ZM6.49437 9.77695C6.6693 9.77695 6.84423 9.78803 7.01815 9.77443C7.31004 9.75126 7.50496 9.53515 7.49796 9.26464C7.49602 9.13699 7.44474 9.01515 7.35504 8.92503C7.26535 8.8349 7.1443 8.78361 7.01766 8.78205C6.67679 8.76845 6.33493 8.76845 5.99457 8.78205C5.69969 8.79313 5.50277 9.00521 5.50277 9.27874C5.50277 9.55227 5.70269 9.75629 5.99557 9.77745C6.161 9.78853 6.32793 9.77896 6.49437 9.77896V9.77695ZM3.17771 2.73306C3.00328 2.73306 2.82785 2.72399 2.65442 2.73306C2.37054 2.7517 2.18212 2.94614 2.17312 3.21262C2.16879 3.27593 2.17706 3.33947 2.19745 3.39951C2.21784 3.45955 2.24993 3.51487 2.29184 3.56223C2.33375 3.60958 2.38463 3.64802 2.44149 3.67527C2.49835 3.70252 2.56004 3.71803 2.62294 3.7209C2.98784 3.74131 3.35359 3.74131 3.71849 3.7209C3.99638 3.70478 4.17231 3.47759 4.16181 3.2096C4.15926 3.08663 4.11036 2.96925 4.02505 2.8813C3.93974 2.79335 3.82442 2.74143 3.7025 2.73608C3.52757 2.72197 3.35214 2.73306 3.17771 2.73306ZM3.16572 5.74445C3.34015 5.74445 3.51557 5.75604 3.689 5.74143C3.98139 5.71725 4.16931 5.50366 4.16031 5.22761C4.15926 5.10006 4.10814 4.97811 4.01814 4.88844C3.92813 4.79876 3.80657 4.74865 3.68001 4.74905C3.33965 4.73595 2.99828 4.73595 2.65792 4.74905C2.36354 4.76013 2.17012 4.97271 2.17262 5.24877C2.17512 5.51374 2.36054 5.71675 2.64243 5.74042C2.81586 5.75654 2.99129 5.74445 3.16572 5.74445ZM3.17621 6.76454C3.00178 6.76454 2.82635 6.75547 2.65292 6.76454C2.36954 6.78318 2.18112 6.97914 2.17262 7.24562C2.16857 7.30879 2.17704 7.37214 2.19755 7.43197C2.21806 7.4918 2.25019 7.54692 2.29207 7.5941C2.33394 7.64127 2.38473 7.67957 2.44145 7.70675C2.49817 7.73393 2.5597 7.74944 2.62244 7.75239C2.98734 7.77279 3.35309 7.77279 3.71799 7.75239C3.99588 7.73576 4.17081 7.50807 4.15981 7.24008C4.15675 7.11698 4.10741 6.99964 4.02176 6.91182C3.93612 6.824 3.82057 6.77226 3.6985 6.76706C3.52607 6.75396 3.34864 6.76454 3.17621 6.76454ZM3.15822 8.77953C2.99179 8.77953 2.82535 8.77096 2.65842 8.77953C2.36304 8.79817 2.16962 9.00269 2.17112 9.27874C2.16953 9.3423 2.18045 9.40554 2.20325 9.46481C2.22606 9.52409 2.26029 9.57822 2.30398 9.62408C2.34767 9.66994 2.39994 9.70661 2.45777 9.73199C2.51561 9.75736 2.57786 9.77093 2.64093 9.77191C2.99079 9.78954 3.34065 9.79004 3.68701 9.77191C3.75187 9.77127 3.81592 9.75736 3.8753 9.73104C3.93467 9.70471 3.98812 9.66652 4.03242 9.61876C4.07672 9.571 4.11094 9.51468 4.13301 9.45321C4.15508 9.39173 4.16454 9.32638 4.16081 9.26111C4.15282 8.98757 3.9539 8.79212 3.65652 8.77701C3.49109 8.77096 3.32465 8.77802 3.15822 8.77802V8.77953Z" fill="#1086C9"/>
<path d="M10.3516 15.9877V6.16016C10.9093 6.27551 11.4451 6.38533 11.9804 6.49817C12.9655 6.70622 13.9496 6.9188 14.9352 7.12433C15.6494 7.27293 15.9993 7.69306 15.9998 8.42147C15.9998 10.5201 15.9998 12.619 15.9998 14.7183C15.9998 15.5188 15.52 15.9998 14.7228 16.0003C13.3493 16.0003 11.9757 16.0003 10.602 16.0003C10.521 15.9988 10.44 15.9918 10.3516 15.9877ZM13.006 8.94487C12.8311 8.94487 12.6561 8.93681 12.4812 8.94487C12.3525 8.94899 12.2304 9.00341 12.1408 9.09663C12.0512 9.18985 12.0011 9.31455 12.0011 9.44433C12.0011 9.57412 12.0512 9.69881 12.1408 9.79203C12.2304 9.88525 12.3525 9.93968 12.4812 9.9438C12.8221 9.95639 13.1644 9.95488 13.5053 9.9438C13.6362 9.94286 13.7614 9.88972 13.8536 9.79598C13.9458 9.70224 13.9974 9.57554 13.9971 9.44358C13.9963 9.31197 13.9445 9.18589 13.8527 9.09231C13.7609 8.99873 13.6363 8.94509 13.5058 8.94285C13.3394 8.93731 13.1724 8.94436 13.006 8.94487ZM13.017 10.9599C12.8336 10.9599 12.6496 10.9493 12.4672 10.9599C12.3408 10.9672 12.2219 11.0232 12.1352 11.1162C12.0484 11.2091 12.0002 11.3321 12.0006 11.4597C12.001 11.5874 12.0499 11.71 12.1372 11.8025C12.2246 11.8949 12.3437 11.9501 12.4702 11.9568C12.8201 11.9704 13.1699 11.9699 13.5198 11.9568C13.6464 11.9534 13.7669 11.9007 13.8559 11.8098C13.9448 11.7189 13.9955 11.5968 13.9971 11.4691C13.999 11.3376 13.9498 11.2105 13.8599 11.115C13.7701 11.0196 13.6467 10.9633 13.5163 10.9583C13.3503 10.9528 13.1834 10.9609 13.017 10.9619V10.9599ZM12.986 13.9798C13.1529 13.9798 13.3194 13.9848 13.4858 13.9798C13.7857 13.9682 14.0001 13.7516 13.9971 13.473C13.9956 13.3412 13.9427 13.2153 13.8496 13.1226C13.7566 13.0298 13.6311 12.9779 13.5003 12.9779C13.1674 12.9683 12.8336 12.9683 12.5007 12.9779C12.4357 12.977 12.3713 12.9891 12.311 13.0134C12.2506 13.0377 12.1957 13.0738 12.1493 13.1196C12.1028 13.1653 12.0658 13.2199 12.0404 13.2801C12.0149 13.3404 12.0015 13.4051 12.0009 13.4705C11.9964 13.7486 12.2118 13.9672 12.5097 13.9798C12.6696 13.9869 12.8281 13.9818 12.986 13.9818V13.9798Z" fill="#1086C9"/>
</g>
<defs>
<clipPath id="clip0">
<rect width="16" height="16" fill="white"/>
</clipPath>
</defs>
</svg>
