<svg width="16" height="16" viewBox="0 0 16 16" fill="none" xmlns="http://www.w3.org/2000/svg">
<g clip-path="url(#clip0)">
<path d="M15.746 7.23282L8.346 0.139488C8.15267 -0.045845 7.84733 -0.045845 7.654 0.139488L0.246667 7.24015C0.09 7.39682 0 7.61282 0 7.83349C0 8.29282 0.374 8.66682 0.833333 8.66682H2V15.0001C2 15.5521 2.448 16.0001 3 16.0001H5.83333C6.10933 16.0001 6.33333 15.7761 6.33333 15.5001V11.1668C6.33333 11.0755 6.408 11.0002 6.5 11.0002H9.5C9.59133 11.0002 9.66667 11.0755 9.66667 11.1668V15.5001C9.66667 15.7761 9.89067 16.0001 10.1667 16.0001H13C13.552 16.0001 14 15.5521 14 15.0001V8.66682H15.1667C15.626 8.66682 16 8.29282 16 7.83349C16 7.61282 15.91 7.39682 15.746 7.23282Z" fill="#8C8C8C"/>
</g>
<defs>
<clipPath id="clip0">
<rect width="16" height="16" fill="white"/>
</clipPath>
</defs>
</svg>
