<svg width="16" height="16" viewBox="0 0 16 16" fill="none" xmlns="http://www.w3.org/2000/svg">
<g clip-path="url(#clip0)">
<path d="M11.9813 2.90883L3.73733 6.00008H1.5C0.673333 6.00008 0 6.63133 0 7.40633V9.12508C0 9.86133 0.616667 10.3751 1.5 10.3751H2.06667L2.672 14.3476C2.70733 14.5788 2.918 14.7501 3.16667 14.7501H5.16667C5.30933 14.7501 5.44467 14.6932 5.54 14.5938C5.63467 14.4945 5.68 14.362 5.664 14.2288L5.27067 10.9501L11.9807 13.4663C12.0413 13.4888 12.104 13.5001 12.1667 13.5001C12.2647 13.5001 12.3633 13.4726 12.4473 13.4195C12.5847 13.332 12.6667 13.187 12.6667 13.0313V3.34383C12.6667 3.18821 12.5847 3.04321 12.4473 2.95571C12.3093 2.86821 12.1347 2.85071 11.9813 2.90883Z" fill="#8C8C8C"/>
<path d="M14.1459 6.83501L15.8126 5.58501C16.0279 5.42314 16.0633 5.12814 15.8906 4.92564C15.7173 4.72438 15.4033 4.69188 15.1873 4.85251L13.5206 6.10251C13.3053 6.26439 13.2699 6.55939 13.4426 6.76189C13.5413 6.87689 13.6866 6.93751 13.8333 6.93751C13.9433 6.93751 14.0533 6.90376 14.1459 6.83501Z" fill="#8C8C8C"/>
<path d="M14.1459 10.165C13.9313 10.0044 13.6166 10.0369 13.4426 10.2381C13.2699 10.44 13.3053 10.7356 13.5206 10.8975L15.1873 12.1475C15.2799 12.2163 15.3899 12.25 15.4999 12.25C15.6466 12.25 15.7919 12.1894 15.8906 12.0744C16.0633 11.8725 16.0279 11.5769 15.8126 11.415L14.1459 10.165Z" fill="#8C8C8C"/>
<path d="M15.5002 8.03125H13.8335C13.5575 8.03125 13.3335 8.24125 13.3335 8.5C13.3335 8.75875 13.5575 8.96875 13.8335 8.96875H15.5002C15.7762 8.96875 16.0002 8.75875 16.0002 8.5C16.0002 8.24125 15.7762 8.03125 15.5002 8.03125Z" fill="#8C8C8C"/>
</g>
<defs>
<clipPath id="clip0">
<rect width="16" height="15" fill="white" transform="translate(0 1)"/>
</clipPath>
</defs>
</svg>
