<svg width="24" height="24" viewBox="0 0 24 24" fill="none" xmlns="http://www.w3.org/2000/svg">
<path d="M18.9543 11.1002C19.1174 11.1002 19.275 11.1593 19.398 11.2665C19.5209 11.3737 19.6009 11.5219 19.623 11.6835L19.6293 11.7753V18.0756C19.6296 18.8228 19.344 19.5418 18.831 20.085C18.3181 20.6283 17.6166 20.9547 16.8707 20.9972L16.7042 21.0017H6.80359C6.05642 21.0018 5.33756 20.7159 4.79446 20.2028C4.25137 19.6896 3.92522 18.9881 3.88292 18.2421L3.87842 18.0765V11.7753C3.87847 11.6042 3.94344 11.4396 4.0602 11.3146C4.17697 11.1897 4.33681 11.1137 4.50745 11.102C4.67808 11.0904 4.84678 11.1439 4.97945 11.2518C5.11213 11.3598 5.19888 11.514 5.2222 11.6835L5.2285 11.7753V18.0756C5.2283 18.4712 5.37698 18.8524 5.64496 19.1434C5.91294 19.4344 6.28061 19.6139 6.67488 19.6462L6.80359 19.6516H16.7042C17.0996 19.6516 17.4806 19.5028 17.7714 19.2349C18.0622 18.9669 18.2415 18.5994 18.2739 18.2052L18.2793 18.0765V11.7753C18.2793 11.5962 18.3504 11.4245 18.477 11.2979C18.6036 11.1714 18.7753 11.1002 18.9543 11.1002ZM6.77299 7.69443L11.2696 3.19777C11.3839 3.08345 11.5355 3.01394 11.6967 3.00188C11.8579 2.98982 12.0181 3.03602 12.1481 3.13207L12.2237 3.19687L16.7285 7.69443C16.8496 7.81473 16.9206 7.97644 16.9272 8.147C16.9339 8.31755 16.8757 8.4843 16.7644 8.61367C16.653 8.74305 16.4968 8.82543 16.3271 8.84425C16.1575 8.86307 15.987 8.81692 15.85 8.71509L15.7744 8.64939L12.4235 5.30479L12.4244 15.83C12.4244 15.9931 12.3653 16.1507 12.2581 16.2737C12.1509 16.3966 12.0028 16.4766 11.8412 16.4987L11.7494 16.505C11.5863 16.505 11.4287 16.446 11.3057 16.3387C11.1828 16.2315 11.1028 16.0834 11.0806 15.9218L11.0743 15.83V5.30209L7.72704 8.64939C7.61275 8.76371 7.46122 8.83322 7.30001 8.84528C7.1388 8.85734 6.97862 8.81114 6.84859 8.71509L6.77299 8.64939C6.65843 8.53504 6.58877 8.38334 6.57671 8.22192C6.56465 8.06051 6.61099 7.90014 6.70728 7.77004L6.77299 7.69443L11.2696 3.19777L6.77299 7.69443Z" fill="#696969"/>
</svg>
