<svg width="32" height="32" viewBox="0 0 32 32" fill="none" xmlns="http://www.w3.org/2000/svg">
<path fill-rule="evenodd" clip-rule="evenodd" d="M28.7082 22.7082C28.6153 22.8013 28.5049 22.8752 28.3834 22.9256C28.2619 22.976 28.1317 23.002 28.0002 23.002C27.8686 23.002 27.7384 22.976 27.6169 22.9256C27.4954 22.8752 27.3851 22.8013 27.2922 22.7082L16.0002 11.4142L4.70817 22.7082C4.61519 22.8011 4.50481 22.8749 4.38333 22.9252C4.26185 22.9755 4.13165 23.0014 4.00017 23.0014C3.86868 23.0014 3.73848 22.9755 3.617 22.9252C3.49552 22.8749 3.38514 22.8011 3.29217 22.7082C3.19919 22.6152 3.12544 22.5048 3.07512 22.3833C3.0248 22.2619 2.9989 22.1317 2.9989 22.0002C2.9989 21.8687 3.0248 21.7385 3.07512 21.617C3.12544 21.4955 3.19919 21.3851 3.29217 21.2922L15.2922 9.29216C15.3851 9.19904 15.4954 9.12515 15.6169 9.07474C15.7384 9.02433 15.8686 8.99838 16.0002 8.99838C16.1317 8.99838 16.2619 9.02433 16.3834 9.07474C16.5049 9.12515 16.6153 9.19904 16.7082 9.29216L28.7082 21.2922C28.8013 21.3851 28.8752 21.4954 28.9256 21.6169C28.976 21.7384 29.002 21.8686 29.002 22.0002C29.002 22.1317 28.976 22.2619 28.9256 22.3834C28.8752 22.5049 28.8013 22.6153 28.7082 22.7082Z" fill="white"/>
</svg>
