<svg width="16" height="16" viewBox="0 0 16 16" fill="none" xmlns="http://www.w3.org/2000/svg">
<path fill-rule="evenodd" clip-rule="evenodd" d="M7.99984 0.666504C3.94984 0.666504 0.666504 3.94984 0.666504 7.99984C0.666504 12.0498 3.94984 15.3332 7.99984 15.3332C12.0498 15.3332 15.3332 12.0498 15.3332 7.99984C15.3332 3.94984 12.0498 0.666504 7.99984 0.666504ZM1.99984 7.99984C1.99984 7.21191 2.15503 6.43169 2.45656 5.70374C2.75809 4.97578 3.20004 4.31435 3.7572 3.7572C4.31435 3.20004 4.97578 2.75809 5.70374 2.45656C6.43169 2.15503 7.21191 1.99984 7.99984 1.99984C8.78777 1.99984 9.56798 2.15503 10.2959 2.45656C11.0239 2.75809 11.6853 3.20004 12.2425 3.7572C12.7996 4.31435 13.2416 4.97578 13.5431 5.70374C13.8446 6.43169 13.9998 7.21191 13.9998 7.99984C13.9998 9.59114 13.3677 11.1173 12.2425 12.2425C11.1173 13.3677 9.59114 13.9998 7.99984 13.9998C6.40854 13.9998 4.88241 13.3677 3.7572 12.2425C2.63198 11.1173 1.99984 9.59114 1.99984 7.99984ZM8.6665 4.6665C8.6665 4.48969 8.59627 4.32012 8.47124 4.1951C8.34622 4.07008 8.17665 3.99984 7.99984 3.99984C7.82303 3.99984 7.65346 4.07008 7.52843 4.1951C7.40341 4.32012 7.33317 4.48969 7.33317 4.6665V7.99984C7.33317 8.10333 7.35727 8.20541 7.40355 8.29798C7.44984 8.39055 7.51704 8.47107 7.59984 8.53317L10.2665 10.5332C10.408 10.6393 10.5858 10.6848 10.7608 10.6598C10.9358 10.6348 11.0937 10.5413 11.1998 10.3998C11.3059 10.2584 11.3515 10.0806 11.3265 9.90556C11.3015 9.73052 11.208 9.57259 11.0665 9.4665L8.6665 7.6665V4.6665Z" fill="#696969"/>
</svg>
