<svg width="25" height="25" viewBox="0 0 25 25" fill="none" xmlns="http://www.w3.org/2000/svg">
<path d="M12.5 2.5C6.98 2.5 2.5 6.98 2.5 12.5C2.5 18.02 6.98 22.5 12.5 22.5C18.02 22.5 22.5 18.02 22.5 12.5C22.5 6.98 18.02 2.5 12.5 2.5ZM12.5 20.5C8.09 20.5 4.5 16.91 4.5 12.5C4.5 8.09 8.09 4.5 12.5 4.5C16.91 4.5 20.5 8.09 20.5 12.5C20.5 16.91 16.91 20.5 12.5 20.5ZM13.39 11.6C11.61 11.01 10.75 10.64 10.75 9.7C10.75 8.68 11.86 8.31 12.56 8.31C13.87 8.31 14.35 9.3 14.46 9.65L16.04 8.98C15.89 8.54 15.22 7.07 13.38 6.75V5.5H11.63V6.76C9.03 7.32 9.01 9.61 9.01 9.72C9.01 11.99 11.26 12.63 12.36 13.03C13.94 13.59 14.64 14.1 14.64 15.06C14.64 16.19 13.59 16.67 12.66 16.67C10.84 16.67 10.32 14.8 10.26 14.58L8.6 15.25C9.23 17.44 10.88 18.03 11.62 18.21V19.5H13.37V18.26C13.89 18.17 16.39 17.67 16.39 15.04C16.4 13.65 15.79 12.43 13.39 11.6Z" fill="#222222"/>
</svg>
