<svg width="24" height="24" viewBox="0 0 24 24" fill="none" xmlns="http://www.w3.org/2000/svg">
<path d="M11.9998 21.8184C11.8648 21.8179 11.7337 21.7728 11.6271 21.69C8.22928 19.05 5.88873 16.7767 4.25095 14.5339C2.16095 11.6678 1.68428 9.0217 2.83317 6.66893C3.65206 4.98837 6.00484 3.61337 8.75484 4.41393C10.066 4.79265 11.21 5.60485 11.9998 6.71781C12.7897 5.60485 13.9337 4.79265 15.2448 4.41393C17.9887 3.62559 20.3476 4.98837 21.1665 6.66893C22.3154 9.0217 21.8387 11.6678 19.7487 14.5339C18.1109 16.7767 15.7704 19.05 12.3726 21.69C12.2659 21.7728 12.1349 21.8179 11.9998 21.8184ZM7.19039 5.41004C6.53605 5.38457 5.88712 5.53779 5.31327 5.85324C4.73942 6.1687 4.26232 6.63448 3.93317 7.20059C2.98595 9.14393 3.41373 11.3073 5.24095 13.8067C7.1828 16.3114 9.45664 18.54 11.9998 20.4311C14.5426 18.5419 16.8165 16.3153 18.7587 13.8128C20.5921 11.3073 21.0137 9.14393 20.0665 7.2067C19.4554 5.98448 17.6221 5.01281 15.5809 5.58726C14.9265 5.78068 14.3197 6.10897 13.7998 6.55103C13.2799 6.99308 12.8582 7.53909 12.5621 8.15392C12.516 8.26601 12.4377 8.36188 12.337 8.42934C12.2364 8.49681 12.118 8.53283 11.9968 8.53283C11.8756 8.53283 11.7572 8.49681 11.6565 8.42934C11.5559 8.36188 11.4775 8.26601 11.4315 8.15392C11.1375 7.53755 10.7166 6.99026 10.1964 6.54794C9.67612 6.10561 9.06825 5.77823 8.41261 5.58726C8.01538 5.47188 7.60404 5.41224 7.19039 5.41004Z" fill="#696969"/>
</svg>
